<svg style="position: absolute; width: 0; height: 0; overflow:hidden;" version="1.1" xmlns="http://www.w3.org/2000/svg" xmlns:xlink="http://www.w3.org/1999/xlink">
<defs>
<symbol viewBox="0 0 24 24" id="icon-plus">
<title>plus</title><path d="M19,13H13V19H11V13H5V11H11V5H13V11H19V13Z" />
</symbol>
<symbol viewBox="0 0 24 24" id="icon-close">
<title>close-box-outline</title><path d="M19,3H5A2,2 0 0,0 3,5V19A2,2 0 0,0 5,21H19A2,2 0 0,0 21,19V5A2,2 0 0,0 19,3M19,19H5V5H19V19M17,8.4L13.4,12L17,15.6L15.6,17L12,13.4L8.4,17L7,15.6L10.6,12L7,8.4L8.4,7L12,10.6L15.6,7L17,8.4Z" />
</symbol>
</defs>
</svg>


